<svg xmlns="http://www.w3.org/2000/svg" xmlns:xlink="http://www.w3.org/1999/xlink" width="100" zoomAndPan="magnify" viewBox="0 0 75 37.5" height="50" preserveAspectRatio="xMidYMid meet" version="1.0"><defs><filter x="0%" y="0%" width="100%" height="100%" id="cd71f970eb"><feColorMatrix values="0 0 0 0 1 0 0 0 0 1 0 0 0 0 1 0 0 0 1 0" color-interpolation-filters="sRGB"/></filter><g/><clipPath id="ad5c86b26b"><path d="M 29 12 L 46 12 L 46 29.605469 L 29 29.605469 Z M 29 12 " clip-rule="nonzero"/></clipPath><mask id="aa150bb558"><g filter="url(#cd71f970eb)"><rect x="-7.5" width="90" fill="#000000" y="-3.75" height="45" fill-opacity="0.2"/></g></mask><clipPath id="2a2bbc0271"><path d="M 1 0.394531 L 7.886719 0.394531 L 7.886719 11.527344 L 1 11.527344 Z M 1 0.394531 " clip-rule="nonzero"/></clipPath><clipPath id="1775c5a457"><path d="M 0.78125 0.394531 L 7.886719 0.394531 L 7.886719 11.527344 L 0.78125 11.527344 Z M 0.78125 0.394531 " clip-rule="nonzero"/></clipPath><clipPath id="0e903d1ce2"><rect x="0" width="8" y="0" height="12"/></clipPath><mask id="e86d0b128d"><g filter="url(#cd71f970eb)"><rect x="-7.5" width="90" fill="#000000" y="-3.75" height="45" fill-opacity="0.2"/></g></mask><clipPath id="5111550942"><path d="M 0.492188 0.65625 L 2.625 0.65625 L 2.625 3.5 L 0.492188 3.5 Z M 0.492188 0.65625 " clip-rule="nonzero"/></clipPath><clipPath id="7bbf8d374b"><rect x="0" width="3" y="0" height="4"/></clipPath><clipPath id="7b0b902635"><path d="M 28 12 L 46 12 L 46 29.605469 L 28 29.605469 Z M 28 12 " clip-rule="nonzero"/></clipPath><clipPath id="5dd7ee65e4"><path d="M 43 0 L 65.859375 0 L 65.859375 29.605469 L 43 29.605469 Z M 43 0 " clip-rule="nonzero"/></clipPath><clipPath id="8d9b4a06e9"><path d="M 43 0 L 65.859375 0 L 65.859375 29.605469 L 43 29.605469 Z M 43 0 " clip-rule="nonzero"/></clipPath><clipPath id="6747b216e3"><path d="M 8.871094 0 L 32 0 L 32 29.605469 L 8.871094 29.605469 Z M 8.871094 0 " clip-rule="nonzero"/></clipPath><clipPath id="3e299c4cd6"><path d="M 9 0 L 32 0 L 32 29.605469 L 9 29.605469 Z M 9 0 " clip-rule="nonzero"/></clipPath></defs><g clip-path="url(#ad5c86b26b)"><path fill="#000000" d="M 45.335938 21.054688 C 45.335938 21.585938 45.285156 22.109375 45.183594 22.628906 C 45.078125 23.144531 44.929688 23.652344 44.726562 24.140625 C 44.527344 24.628906 44.28125 25.09375 43.992188 25.53125 C 43.699219 25.972656 43.371094 26.378906 43 26.753906 C 42.628906 27.128906 42.226562 27.464844 41.792969 27.757812 C 41.355469 28.050781 40.898438 28.300781 40.414062 28.503906 C 39.929688 28.703125 39.429688 28.859375 38.917969 28.960938 C 38.402344 29.0625 37.886719 29.117188 37.363281 29.117188 C 36.839844 29.117188 36.320312 29.0625 35.804688 28.960938 C 35.292969 28.859375 34.792969 28.703125 34.3125 28.503906 C 33.828125 28.300781 33.367188 28.050781 32.933594 27.757812 C 32.496094 27.464844 32.09375 27.128906 31.722656 26.753906 C 31.355469 26.378906 31.023438 25.972656 30.734375 25.53125 C 30.441406 25.09375 30.195312 24.628906 29.996094 24.140625 C 29.796875 23.652344 29.644531 23.144531 29.542969 22.628906 C 29.441406 22.109375 29.390625 21.585938 29.390625 21.054688 C 29.390625 20.527344 29.441406 20 29.542969 19.480469 C 29.644531 18.964844 29.796875 18.457031 29.996094 17.96875 C 30.195312 17.480469 30.441406 17.015625 30.734375 16.578125 C 31.023438 16.136719 31.355469 15.730469 31.722656 15.355469 C 32.09375 14.980469 32.496094 14.644531 32.933594 14.351562 C 33.367188 14.058594 33.828125 13.808594 34.3125 13.609375 C 34.792969 13.40625 35.292969 13.253906 35.804688 13.148438 C 36.320312 13.046875 36.839844 12.992188 37.363281 12.992188 C 37.886719 12.992188 38.402344 13.046875 38.917969 13.148438 C 39.429688 13.253906 39.929688 13.40625 40.414062 13.609375 C 40.898438 13.808594 41.355469 14.058594 41.792969 14.351562 C 42.226562 14.644531 42.628906 14.980469 43 15.355469 C 43.371094 15.730469 43.699219 16.136719 43.992188 16.578125 C 44.28125 17.015625 44.527344 17.480469 44.726562 17.96875 C 44.929688 18.457031 45.078125 18.964844 45.183594 19.480469 C 45.285156 20 45.335938 20.527344 45.335938 21.054688 Z M 45.335938 21.054688 " fill-opacity="1" fill-rule="nonzero"/></g><path fill="#ffffff" d="M 43.507812 21.054688 C 43.507812 21.460938 43.46875 21.867188 43.386719 22.265625 C 43.308594 22.667969 43.191406 23.054688 43.039062 23.433594 C 42.882812 23.808594 42.695312 24.167969 42.472656 24.507812 C 42.246094 24.84375 41.992188 25.160156 41.707031 25.445312 C 41.421875 25.734375 41.109375 25.992188 40.777344 26.21875 C 40.441406 26.445312 40.085938 26.636719 39.714844 26.792969 C 39.339844 26.949219 38.957031 27.066406 38.5625 27.148438 C 38.164062 27.226562 37.765625 27.265625 37.363281 27.265625 C 36.957031 27.265625 36.558594 27.226562 36.164062 27.148438 C 35.769531 27.066406 35.382812 26.949219 35.011719 26.792969 C 34.636719 26.636719 34.285156 26.445312 33.949219 26.21875 C 33.613281 25.992188 33.300781 25.734375 33.015625 25.445312 C 32.730469 25.160156 32.476562 24.84375 32.253906 24.507812 C 32.027344 24.167969 31.839844 23.808594 31.683594 23.433594 C 31.53125 23.054688 31.414062 22.667969 31.335938 22.265625 C 31.257812 21.867188 31.21875 21.460938 31.21875 21.054688 C 31.21875 20.648438 31.257812 20.242188 31.335938 19.84375 C 31.414062 19.441406 31.53125 19.054688 31.683594 18.675781 C 31.839844 18.300781 32.027344 17.941406 32.253906 17.605469 C 32.476562 17.265625 32.730469 16.949219 33.015625 16.664062 C 33.300781 16.375 33.613281 16.117188 33.949219 15.890625 C 34.285156 15.664062 34.636719 15.472656 35.011719 15.316406 C 35.382812 15.160156 35.769531 15.042969 36.164062 14.960938 C 36.558594 14.882812 36.957031 14.84375 37.363281 14.84375 C 37.765625 14.84375 38.164062 14.882812 38.5625 14.960938 C 38.957031 15.042969 39.339844 15.160156 39.714844 15.316406 C 40.085938 15.472656 40.441406 15.664062 40.777344 15.890625 C 41.109375 16.117188 41.421875 16.375 41.707031 16.664062 C 41.992188 16.949219 42.246094 17.265625 42.472656 17.605469 C 42.695312 17.941406 42.882812 18.300781 43.039062 18.675781 C 43.191406 19.054688 43.308594 19.441406 43.386719 19.84375 C 43.46875 20.242188 43.507812 20.648438 43.507812 21.054688 Z M 43.507812 21.054688 " fill-opacity="1" fill-rule="nonzero"/><path fill="#ffffff" d="M 42.710938 21.054688 C 42.710938 21.410156 42.675781 21.761719 42.609375 22.109375 C 42.539062 22.457031 42.4375 22.796875 42.304688 23.125 C 42.167969 23.453125 42.003906 23.765625 41.808594 24.058594 C 41.613281 24.355469 41.394531 24.628906 41.144531 24.878906 C 40.894531 25.128906 40.625 25.355469 40.335938 25.550781 C 40.042969 25.75 39.734375 25.914062 39.410156 26.050781 C 39.085938 26.1875 38.75 26.289062 38.40625 26.359375 C 38.0625 26.429688 37.714844 26.460938 37.363281 26.460938 C 37.011719 26.460938 36.664062 26.429688 36.320312 26.359375 C 35.972656 26.289062 35.640625 26.1875 35.316406 26.050781 C 34.992188 25.914062 34.683594 25.75 34.390625 25.550781 C 34.097656 25.355469 33.828125 25.128906 33.578125 24.878906 C 33.332031 24.628906 33.109375 24.355469 32.914062 24.058594 C 32.71875 23.765625 32.554688 23.453125 32.421875 23.125 C 32.285156 22.796875 32.183594 22.457031 32.117188 22.109375 C 32.046875 21.761719 32.011719 21.410156 32.011719 21.054688 C 32.011719 20.699219 32.046875 20.347656 32.117188 20 C 32.183594 19.652344 32.285156 19.3125 32.421875 18.984375 C 32.554688 18.65625 32.71875 18.34375 32.914062 18.050781 C 33.109375 17.753906 33.332031 17.480469 33.578125 17.230469 C 33.828125 16.980469 34.097656 16.753906 34.390625 16.558594 C 34.683594 16.359375 34.992188 16.195312 35.316406 16.058594 C 35.640625 15.921875 35.972656 15.820312 36.320312 15.75 C 36.664062 15.679688 37.011719 15.648438 37.363281 15.648438 C 37.714844 15.648438 38.0625 15.679688 38.40625 15.75 C 38.75 15.820312 39.085938 15.921875 39.410156 16.058594 C 39.734375 16.195312 40.042969 16.359375 40.335938 16.558594 C 40.625 16.753906 40.894531 16.980469 41.144531 17.230469 C 41.394531 17.480469 41.613281 17.753906 41.808594 18.050781 C 42.003906 18.34375 42.167969 18.65625 42.304688 18.984375 C 42.4375 19.3125 42.539062 19.652344 42.609375 20 C 42.675781 20.347656 42.710938 20.699219 42.710938 21.054688 Z M 42.710938 21.054688 " fill-opacity="1" fill-rule="nonzero"/><g mask="url(#aa150bb558)"><g transform="matrix(1, 0, 0, 1, 35, 15)"><g clip-path="url(#0e903d1ce2)"><g clip-path="url(#2a2bbc0271)"><path fill="#000000" d="M 2.363281 0.648438 C 1.890625 0.648438 1.4375 0.707031 1.003906 0.820312 C 1.191406 0.800781 1.378906 0.792969 1.574219 0.792969 C 4.53125 0.792969 6.921875 3.210938 6.921875 6.199219 C 6.921875 8.714844 5.226562 10.828125 2.933594 11.433594 C 5.621094 11.148438 7.71875 8.847656 7.71875 6.054688 C 7.71875 3.074219 5.320312 0.648438 2.363281 0.648438 Z M 2.363281 0.648438 " fill-opacity="1" fill-rule="nonzero"/></g><g clip-path="url(#1775c5a457)"><path fill="#ffffff" d="M 2.933594 11.457031 C 2.925781 11.457031 2.917969 11.449219 2.917969 11.441406 C 2.917969 11.433594 2.925781 11.417969 2.933594 11.417969 C 5.273438 10.796875 6.910156 8.65625 6.910156 6.199219 C 6.910156 3.226562 4.515625 0.808594 1.574219 0.808594 C 1.386719 0.808594 1.199219 0.816406 1.011719 0.835938 C 1.003906 0.835938 0.996094 0.828125 0.988281 0.820312 C 0.988281 0.816406 0.996094 0.800781 1.003906 0.800781 C 1.445312 0.683594 1.90625 0.625 2.371094 0.625 C 5.332031 0.625 7.742188 3.058594 7.742188 6.054688 C 7.742188 7.40625 7.25 8.699219 6.351562 9.695312 C 5.457031 10.695312 4.25 11.316406 2.933594 11.457031 Z M 1.574219 0.777344 C 4.539062 0.777344 6.945312 3.210938 6.945312 6.207031 C 6.945312 8.597656 5.40625 10.695312 3.171875 11.398438 C 5.773438 11.003906 7.703125 8.75 7.703125 6.070312 C 7.703125 3.09375 5.3125 0.675781 2.371094 0.675781 C 1.992188 0.675781 1.617188 0.710938 1.25 0.792969 C 1.355469 0.777344 1.464844 0.777344 1.574219 0.777344 Z M 1.574219 0.777344 " fill-opacity="1" fill-rule="nonzero"/></g></g></g></g><path fill="#000000" d="M 37.363281 26.695312 C 34.289062 26.695312 31.789062 24.167969 31.789062 21.0625 C 31.789062 17.957031 34.289062 15.425781 37.363281 15.425781 C 40.433594 15.425781 42.933594 17.957031 42.933594 21.0625 C 42.933594 24.167969 40.441406 26.695312 37.363281 26.695312 Z M 37.363281 15.875 C 34.535156 15.875 32.238281 18.195312 32.238281 21.054688 C 32.238281 23.914062 34.535156 26.234375 37.363281 26.234375 C 40.1875 26.234375 42.488281 23.914062 42.488281 21.054688 C 42.496094 18.195312 40.195312 15.875 37.363281 15.875 Z M 37.363281 15.875 " fill-opacity="1" fill-rule="nonzero"/><path fill="#ffffff" d="M 38.53125 21.054688 C 38.53125 21.210938 38.503906 21.363281 38.445312 21.507812 C 38.382812 21.652344 38.300781 21.78125 38.191406 21.890625 C 38.082031 22.003906 37.953125 22.089844 37.808594 22.148438 C 37.667969 22.207031 37.515625 22.238281 37.363281 22.238281 C 37.207031 22.238281 37.058594 22.207031 36.914062 22.148438 C 36.769531 22.089844 36.644531 22.003906 36.535156 21.890625 C 36.425781 21.78125 36.339844 21.652344 36.28125 21.507812 C 36.222656 21.363281 36.191406 21.210938 36.191406 21.054688 C 36.191406 20.898438 36.222656 20.746094 36.28125 20.601562 C 36.339844 20.457031 36.425781 20.328125 36.535156 20.21875 C 36.644531 20.105469 36.769531 20.019531 36.914062 19.960938 C 37.058594 19.902344 37.207031 19.871094 37.363281 19.871094 C 37.515625 19.871094 37.667969 19.902344 37.808594 19.960938 C 37.953125 20.019531 38.082031 20.105469 38.191406 20.21875 C 38.300781 20.328125 38.382812 20.457031 38.445312 20.601562 C 38.503906 20.746094 38.53125 20.898438 38.53125 21.054688 Z M 38.53125 21.054688 " fill-opacity="1" fill-rule="nonzero"/><path fill="#000000" d="M 37.363281 22.261719 C 36.710938 22.261719 36.175781 21.71875 36.175781 21.0625 C 36.175781 20.40625 36.710938 19.863281 37.363281 19.863281 C 38.011719 19.863281 38.546875 20.40625 38.546875 21.0625 C 38.546875 21.71875 38.019531 22.261719 37.363281 22.261719 Z M 37.363281 19.894531 C 36.726562 19.894531 36.210938 20.410156 36.210938 21.054688 C 36.210938 21.699219 36.726562 22.214844 37.363281 22.214844 C 38 22.214844 38.511719 21.699219 38.511719 21.054688 C 38.511719 20.417969 38 19.894531 37.363281 19.894531 Z M 37.363281 19.894531 " fill-opacity="1" fill-rule="nonzero"/><g mask="url(#e86d0b128d)"><g transform="matrix(1, 0, 0, 1, 36, 19)"><g clip-path="url(#7bbf8d374b)"><g clip-path="url(#5111550942)"><path fill="#000000" d="M 1.363281 0.878906 C 1.136719 0.878906 0.9375 0.945312 0.753906 1.046875 C 0.792969 1.039062 0.835938 1.039062 0.878906 1.039062 C 1.433594 1.039062 1.882812 1.492188 1.882812 2.054688 C 1.882812 2.617188 1.433594 3.070312 0.878906 3.070312 C 0.835938 3.070312 0.796875 3.070312 0.753906 3.0625 C 0.929688 3.171875 1.136719 3.230469 1.363281 3.230469 C 2.003906 3.230469 2.53125 2.707031 2.53125 2.046875 C 2.53125 1.390625 2.011719 0.878906 1.363281 0.878906 Z M 1.363281 0.878906 " fill-opacity="1" fill-rule="nonzero"/><path fill="#ffffff" d="M 1.363281 3.261719 C 1.144531 3.261719 0.929688 3.203125 0.746094 3.085938 C 0.742188 3.078125 0.742188 3.070312 0.742188 3.0625 C 0.742188 3.054688 0.753906 3.046875 0.761719 3.046875 C 0.804688 3.054688 0.839844 3.054688 0.878906 3.054688 C 1.421875 3.054688 1.867188 2.609375 1.867188 2.054688 C 1.867188 1.5 1.425781 1.054688 0.878906 1.054688 C 0.839844 1.054688 0.796875 1.054688 0.761719 1.0625 C 0.753906 1.0625 0.746094 1.054688 0.742188 1.046875 C 0.734375 1.039062 0.742188 1.03125 0.746094 1.023438 C 0.9375 0.90625 1.144531 0.847656 1.363281 0.847656 C 2.011719 0.847656 2.546875 1.390625 2.546875 2.046875 C 2.546875 2.707031 2.019531 3.261719 1.363281 3.261719 Z M 0.839844 3.09375 C 1 3.179688 1.179688 3.222656 1.371094 3.222656 C 2.003906 3.222656 2.519531 2.707031 2.519531 2.0625 C 2.519531 1.417969 2.003906 0.898438 1.371094 0.898438 C 1.1875 0.898438 1.007812 0.945312 0.839844 1.03125 C 0.855469 1.03125 0.871094 1.03125 0.878906 1.03125 C 1.441406 1.03125 1.902344 1.5 1.902344 2.070312 C 1.902344 2.640625 1.441406 3.105469 0.878906 3.105469 C 0.863281 3.09375 0.855469 3.09375 0.839844 3.09375 Z M 0.839844 3.09375 " fill-opacity="1" fill-rule="nonzero"/></g></g></g></g><path fill="#000000" d="M 37.363281 27.558594 C 33.820312 27.558594 30.9375 24.644531 30.9375 21.0625 C 30.9375 17.480469 33.820312 14.566406 37.363281 14.566406 C 40.902344 14.566406 43.789062 17.480469 43.789062 21.0625 C 43.796875 24.644531 40.910156 27.558594 37.363281 27.558594 Z M 37.363281 15.140625 C 34.136719 15.140625 31.507812 17.796875 31.507812 21.0625 C 31.507812 24.320312 34.132812 26.980469 37.363281 26.980469 C 40.59375 26.980469 43.21875 24.328125 43.21875 21.0625 C 43.21875 17.796875 40.59375 15.140625 37.363281 15.140625 Z M 37.363281 15.140625 " fill-opacity="1" fill-rule="nonzero"/><path fill="#000000" d="M 42.71875 21.308594 L 42.71875 20.804688 L 39.640625 20.433594 C 39.589844 20.234375 39.507812 20.046875 39.40625 19.863281 L 41.324219 17.402344 L 40.96875 17.042969 L 38.53125 18.980469 C 38.359375 18.875 38.171875 18.796875 37.96875 18.746094 L 37.601562 15.632812 L 37.101562 15.632812 L 36.734375 18.746094 C 36.539062 18.796875 36.351562 18.875 36.167969 18.980469 L 33.734375 17.042969 L 33.378906 17.402344 L 35.292969 19.863281 C 35.195312 20.039062 35.113281 20.230469 35.0625 20.433594 L 31.984375 20.804688 L 31.984375 21.308594 L 35.0625 21.683594 C 35.113281 21.878906 35.195312 22.070312 35.292969 22.253906 L 33.378906 24.714844 L 33.734375 25.074219 L 36.167969 23.136719 C 36.34375 23.238281 36.53125 23.320312 36.734375 23.371094 L 37.101562 26.484375 L 37.601562 26.484375 L 37.96875 23.371094 C 38.164062 23.320312 38.351562 23.238281 38.53125 23.136719 L 40.96875 25.074219 L 41.324219 24.714844 L 39.40625 22.253906 C 39.507812 22.078125 39.589844 21.886719 39.640625 21.683594 Z M 37.363281 22.011719 C 36.839844 22.011719 36.421875 21.589844 36.421875 21.0625 C 36.421875 20.535156 36.839844 20.113281 37.363281 20.113281 C 37.882812 20.113281 38.300781 20.535156 38.300781 21.0625 C 38.308594 21.589844 37.882812 22.011719 37.363281 22.011719 Z M 37.363281 22.011719 " fill-opacity="1" fill-rule="nonzero"/><g clip-path="url(#7b0b902635)"><path fill="#000000" d="M 45.820312 20.113281 L 45.320312 20.003906 L 45.769531 19.769531 L 45.285156 17.933594 L 44.777344 17.957031 L 45.15625 17.613281 L 44.214844 15.96875 L 43.730469 16.121094 L 44.003906 15.691406 L 42.675781 14.347656 L 42.25 14.625 L 42.402344 14.132812 L 40.773438 13.183594 L 40.433594 13.5625 L 40.457031 13.050781 L 38.640625 12.5625 L 38.410156 13.015625 L 38.300781 12.511719 L 36.421875 12.511719 L 36.3125 13.015625 L 36.082031 12.5625 L 34.269531 13.050781 L 34.289062 13.5625 L 33.949219 13.183594 L 32.324219 14.132812 L 32.476562 14.625 L 32.050781 14.347656 L 30.71875 15.691406 L 30.992188 16.121094 L 30.507812 15.96875 L 29.570312 17.613281 L 29.945312 17.957031 L 29.4375 17.933594 L 28.957031 19.769531 L 29.402344 20.003906 L 28.90625 20.113281 L 28.90625 22.011719 L 29.402344 22.121094 L 28.957031 22.355469 L 29.4375 24.191406 L 29.945312 24.167969 L 29.570312 24.511719 L 30.507812 26.15625 L 30.992188 26.003906 L 30.71875 26.433594 L 32.050781 27.777344 L 32.476562 27.5 L 32.324219 27.988281 L 33.949219 28.941406 L 34.289062 28.558594 L 34.269531 29.070312 L 36.082031 29.5625 L 36.3125 29.109375 L 36.421875 29.613281 L 38.300781 29.613281 L 38.410156 29.109375 L 38.640625 29.5625 L 40.457031 29.070312 L 40.433594 28.558594 L 40.773438 28.941406 L 42.402344 27.988281 L 42.25 27.5 L 42.675781 27.777344 L 44.003906 26.433594 L 43.730469 26.003906 L 44.214844 26.15625 L 45.15625 24.511719 L 44.777344 24.167969 L 45.285156 24.191406 L 45.769531 22.355469 L 45.320312 22.121094 L 45.820312 22.011719 Z M 43.355469 25.703125 L 41.960938 27.113281 L 40.253906 28.105469 L 38.351562 28.625 L 36.386719 28.625 L 34.484375 28.105469 L 32.773438 27.113281 L 31.375 25.703125 L 30.394531 23.976562 L 29.878906 22.054688 L 29.878906 20.066406 L 30.394531 18.144531 L 31.375 16.421875 L 32.773438 15.011719 L 34.476562 14.015625 L 36.378906 13.5 L 38.34375 13.5 L 40.246094 14.015625 L 41.953125 15.011719 L 43.347656 16.421875 L 44.332031 18.144531 L 44.84375 20.066406 L 44.84375 22.054688 L 44.332031 23.976562 Z M 43.355469 25.703125 " fill-opacity="1" fill-rule="nonzero"/></g><g clip-path="url(#5dd7ee65e4)"><path fill="#ed1f29" d="M 49.210938 17.371094 L 63.972656 10.558594 C 63.933594 10.632812 62.054688 14.9375 59.996094 15.996094 C 58.984375 16.515625 56.359375 17.203125 53.929688 17.765625 C 51.507812 18.328125 49.289062 18.765625 49.058594 18.8125 C 49.058594 18.8125 49.058594 18.8125 49.050781 18.8125 L 60.921875 16.792969 C 60.921875 16.792969 60.703125 19.671875 58.507812 20.0625 C 56.308594 20.441406 48.804688 20.25 48.804688 20.25 L 58.808594 21.207031 C 58.808594 21.207031 56.460938 23.546875 54.261719 23.238281 C 52.152344 22.949219 48.8125 21.589844 48.558594 21.484375 C 48.550781 21.484375 48.550781 21.484375 48.546875 21.480469 L 55.289062 25.191406 C 55.289062 25.191406 53.851562 25.996094 52.144531 25.34375 C 50.480469 24.707031 48.183594 22.328125 48.074219 22.214844 L 51.199219 27.140625 C 51.199219 27.140625 48.53125 26.644531 47.632812 23.582031 C 47.09375 26.71875 44.292969 28.4375 43.414062 28.902344 C 43.414062 28.902344 43.414062 28.902344 43.40625 28.902344 C 43.253906 28.984375 43.160156 29.027344 43.144531 29.035156 C 46.902344 25.15625 46.933594 21.238281 46.695312 19.015625 C 46.695312 18.988281 46.6875 18.957031 46.6875 18.921875 C 46.585938 17.78125 47.042969 16.667969 47.871094 15.933594 C 48.046875 15.777344 48.226562 15.648438 48.429688 15.53125 C 49.042969 15.171875 49.636719 14.820312 50.214844 14.46875 C 50.527344 14.28125 50.835938 14.082031 51.140625 13.894531 C 60.941406 7.644531 64.65625 1.679688 65.429688 0.300781 C 65.539062 0.101562 65.589844 0 65.589844 0 C 65.589844 0 65.632812 0.199219 65.691406 0.539062 C 65.945312 2.125 66.363281 6.824219 63.023438 9.414062 C 62.777344 9.601562 62.46875 9.820312 62.105469 10.0625 C 58.441406 12.503906 49.5 17.21875 49.210938 17.371094 Z M 49.210938 17.371094 " fill-opacity="1" fill-rule="nonzero"/></g><path fill="#000000" d="M 63.972656 10.558594 C 63.933594 10.632812 62.054688 14.9375 59.996094 15.996094 C 58.984375 16.515625 56.359375 17.203125 53.929688 17.765625 C 52.535156 18.066406 50.921875 18.417969 49.058594 18.8125 C 49.058594 18.8125 49.058594 18.8125 49.050781 18.8125 C 49.050781 18.8125 49.050781 18.8125 49.042969 18.8125 C 59.222656 15.9375 63.898438 10.640625 63.972656 10.558594 Z M 63.972656 10.558594 " fill-opacity="0.2" fill-rule="nonzero"/><path fill="#000000" d="M 60.929688 16.792969 C 60.929688 16.792969 60.710938 19.671875 58.511719 20.0625 C 56.316406 20.441406 48.8125 20.25 48.8125 20.25 C 48.8125 20.25 55.722656 20.308594 60.929688 16.792969 Z M 60.929688 16.792969 " fill-opacity="0.2" fill-rule="nonzero"/><path fill="#000000" d="M 58.816406 21.207031 C 58.816406 21.207031 56.46875 23.546875 54.269531 23.238281 C 52.160156 22.949219 48.820312 21.589844 48.566406 21.484375 C 48.558594 21.484375 48.558594 21.484375 48.550781 21.480469 C 48.660156 21.5 54.203125 22.683594 58.816406 21.207031 Z M 58.816406 21.207031 " fill-opacity="0.2" fill-rule="nonzero"/><g clip-path="url(#8d9b4a06e9)"><path fill="#000000" d="M 50.214844 14.476562 C 50.078125 14.558594 49.941406 14.644531 49.804688 14.726562 C 49.789062 14.734375 49.773438 14.746094 49.753906 14.753906 C 49.476562 14.921875 49.203125 15.085938 48.921875 15.253906 C 48.898438 15.265625 48.871094 15.28125 48.847656 15.296875 C 48.710938 15.375 48.566406 15.457031 48.429688 15.542969 C 48.226562 15.660156 48.046875 15.792969 47.871094 15.945312 C 47.042969 16.683594 46.585938 17.796875 46.6875 18.933594 C 46.6875 18.964844 46.695312 18.992188 46.695312 19.03125 C 46.933594 21.253906 46.902344 25.167969 43.144531 29.050781 C 43.160156 29.042969 43.253906 29.007812 43.40625 28.917969 C 43.40625 28.917969 43.40625 28.917969 43.414062 28.917969 C 44.324219 28.386719 47.265625 26.066406 47.625 18.042969 C 47.648438 17.707031 47.726562 17.378906 47.859375 17.058594 C 48.207031 16.214844 48.882812 15.558594 49.714844 15.207031 C 52.671875 13.980469 56.800781 12.117188 59.003906 10.414062 C 65.191406 5.65625 65.589844 0 65.589844 0 C 65.589844 0 62.148438 7.132812 50.214844 14.476562 Z M 50.214844 14.476562 " fill-opacity="0.2" fill-rule="nonzero"/></g><path fill="#000000" d="M 55.296875 25.191406 C 55.296875 25.191406 53.859375 25.996094 52.152344 25.34375 C 50.488281 24.707031 48.191406 22.328125 48.082031 22.214844 C 48.15625 22.273438 50.996094 24.488281 55.296875 25.191406 Z M 55.296875 25.191406 " fill-opacity="0.2" fill-rule="nonzero"/><path fill="#000000" d="M 51.207031 27.140625 C 51.207031 27.140625 48.539062 26.644531 47.640625 23.582031 C 47.640625 23.582031 48.703125 25.359375 51.207031 27.140625 Z M 51.207031 27.140625 " fill-opacity="0.2" fill-rule="nonzero"/><g clip-path="url(#6747b216e3)"><path fill="#ed1f29" d="M 25.523438 17.371094 L 10.761719 10.558594 C 10.796875 10.632812 12.675781 14.9375 14.734375 15.996094 C 15.75 16.515625 18.371094 17.203125 20.800781 17.765625 C 23.222656 18.328125 25.441406 18.765625 25.671875 18.8125 C 25.671875 18.8125 25.671875 18.8125 25.679688 18.8125 L 13.804688 16.792969 C 13.804688 16.792969 14.019531 19.671875 16.21875 20.0625 C 18.414062 20.441406 25.917969 20.25 25.917969 20.25 L 15.914062 21.207031 C 15.914062 21.207031 18.265625 23.546875 20.460938 23.238281 C 22.570312 22.949219 25.910156 21.589844 26.164062 21.484375 C 26.171875 21.484375 26.171875 21.484375 26.179688 21.480469 L 19.433594 25.191406 C 19.433594 25.191406 20.875 25.996094 22.578125 25.34375 C 24.242188 24.707031 26.539062 22.328125 26.648438 22.214844 L 23.527344 27.140625 C 23.527344 27.140625 26.195312 26.644531 27.089844 23.582031 C 27.632812 26.71875 30.429688 28.4375 31.3125 28.902344 C 31.3125 28.902344 31.3125 28.902344 31.320312 28.902344 C 31.472656 28.984375 31.566406 29.027344 31.578125 29.035156 C 27.820312 25.15625 27.792969 21.238281 28.03125 19.015625 C 28.03125 18.988281 28.035156 18.957031 28.035156 18.921875 C 28.136719 17.78125 27.683594 16.667969 26.851562 15.933594 C 26.679688 15.777344 26.496094 15.648438 26.296875 15.53125 C 25.679688 15.171875 25.085938 14.820312 24.507812 14.46875 C 24.199219 14.28125 23.886719 14.082031 23.585938 13.894531 C 13.789062 7.644531 10.074219 1.679688 9.300781 0.300781 C 9.191406 0.101562 9.140625 0 9.140625 0 C 9.140625 0 9.097656 0.199219 9.039062 0.539062 C 8.785156 2.121094 8.367188 6.824219 11.707031 9.40625 C 11.953125 9.59375 12.265625 9.816406 12.625 10.054688 C 16.289062 12.503906 25.230469 17.21875 25.523438 17.371094 Z M 25.523438 17.371094 " fill-opacity="1" fill-rule="nonzero"/></g><path fill="#000000" d="M 10.761719 10.558594 C 10.796875 10.632812 12.675781 14.9375 14.734375 15.996094 C 15.75 16.515625 18.371094 17.203125 20.800781 17.765625 C 22.195312 18.066406 23.808594 18.417969 25.671875 18.8125 C 25.671875 18.8125 25.671875 18.8125 25.679688 18.8125 C 25.679688 18.8125 25.679688 18.8125 25.6875 18.8125 C 15.507812 15.9375 10.832031 10.640625 10.761719 10.558594 Z M 10.761719 10.558594 " fill-opacity="0.2" fill-rule="nonzero"/><path fill="#000000" d="M 13.804688 16.792969 C 13.804688 16.792969 14.019531 19.671875 16.21875 20.0625 C 18.414062 20.441406 25.917969 20.25 25.917969 20.25 C 25.917969 20.25 19 20.308594 13.804688 16.792969 Z M 13.804688 16.792969 " fill-opacity="0.2" fill-rule="nonzero"/><path fill="#000000" d="M 15.914062 21.207031 C 15.914062 21.207031 18.265625 23.546875 20.460938 23.238281 C 22.570312 22.949219 25.910156 21.589844 26.164062 21.484375 C 26.171875 21.484375 26.171875 21.484375 26.179688 21.480469 C 26.070312 21.5 20.527344 22.683594 15.914062 21.207031 Z M 15.914062 21.207031 " fill-opacity="0.2" fill-rule="nonzero"/><g clip-path="url(#3e299c4cd6)"><path fill="#000000" d="M 24.515625 14.476562 C 24.652344 14.558594 24.792969 14.644531 24.929688 14.726562 C 24.941406 14.734375 24.957031 14.746094 24.980469 14.753906 C 25.253906 14.921875 25.527344 15.085938 25.8125 15.253906 C 25.832031 15.265625 25.859375 15.28125 25.882812 15.296875 C 26.019531 15.375 26.164062 15.457031 26.300781 15.542969 C 26.503906 15.660156 26.683594 15.792969 26.859375 15.945312 C 27.691406 16.683594 28.144531 17.796875 28.042969 18.933594 C 28.042969 18.964844 28.035156 18.992188 28.035156 19.03125 C 27.796875 21.253906 27.828125 25.167969 31.585938 29.050781 C 31.570312 29.042969 31.476562 29.007812 31.324219 28.917969 C 31.324219 28.917969 31.324219 28.917969 31.320312 28.917969 C 30.40625 28.386719 27.464844 26.066406 27.105469 18.042969 C 27.082031 17.707031 27.003906 17.378906 26.875 17.058594 C 26.527344 16.214844 25.847656 15.558594 25.015625 15.207031 C 22.058594 13.980469 17.929688 12.117188 15.726562 10.414062 C 9.539062 5.65625 9.140625 0 9.140625 0 C 9.140625 0 12.582031 7.132812 24.515625 14.476562 Z M 24.515625 14.476562 " fill-opacity="0.2" fill-rule="nonzero"/></g><path fill="#000000" d="M 19.433594 25.191406 C 19.433594 25.191406 20.875 25.996094 22.578125 25.34375 C 24.242188 24.707031 26.539062 22.328125 26.648438 22.214844 C 26.578125 22.273438 23.734375 24.488281 19.433594 25.191406 Z M 19.433594 25.191406 " fill-opacity="0.2" fill-rule="nonzero"/><path fill="#000000" d="M 23.527344 27.140625 C 23.527344 27.140625 26.195312 26.644531 27.089844 23.582031 C 27.089844 23.582031 26.027344 25.359375 23.527344 27.140625 Z M 23.527344 27.140625 " fill-opacity="0.2" fill-rule="nonzero"/><path fill="#ed1f29" d="M 37.363281 7.996094 L 37.898438 9.085938 L 39.074219 9.253906 L 38.222656 10.101562 L 38.425781 11.285156 L 37.363281 10.726562 L 36.308594 11.285156 L 36.507812 10.101562 L 35.65625 9.253906 L 36.835938 9.085938 Z M 37.363281 7.996094 " fill-opacity="1" fill-rule="nonzero"/><path fill="#ed1f29" d="M 41.375 9.910156 L 41.726562 10.632812 L 42.507812 10.742188 L 41.945312 11.304688 L 42.074219 12.101562 L 41.375 11.722656 L 40.664062 12.101562 L 40.804688 11.304688 L 40.230469 10.742188 L 41.019531 10.632812 Z M 41.375 9.910156 " fill-opacity="1" fill-rule="nonzero"/><path fill="#ed1f29" d="M 33.359375 9.910156 L 33.710938 10.632812 L 34.5 10.742188 L 33.929688 11.304688 L 34.058594 12.101562 L 33.359375 11.722656 L 32.65625 12.101562 L 32.785156 11.304688 L 32.214844 10.742188 L 33.003906 10.632812 Z M 33.359375 9.910156 " fill-opacity="1" fill-rule="nonzero"/><g fill="#ffffff" fill-opacity="1"><g transform="translate(21.551799, 36.045418)"><g><path d="M 0.046875 -3.75 L 0.046875 -4.671875 L 3.328125 -4.671875 L 3.328125 -3.75 L 2.21875 -3.75 L 2.21875 0 L 1.15625 0 L 1.15625 -3.75 Z M 0.046875 -3.75 "/></g></g></g><g fill="#ffffff" fill-opacity="1"><g transform="translate(26.38652, 36.045418)"><g><path d="M 3.9375 -4.671875 L 3.9375 -1.65625 C 3.9375 -1.082031 3.78125 -0.648438 3.46875 -0.359375 C 3.15625 -0.0664062 2.703125 0.078125 2.109375 0.078125 C 1.515625 0.078125 1.0625 -0.0664062 0.75 -0.359375 C 0.4375 -0.648438 0.28125 -1.082031 0.28125 -1.65625 L 0.28125 -4.671875 L 1.34375 -4.671875 L 1.34375 -1.96875 C 1.34375 -1.59375 1.398438 -1.332031 1.515625 -1.1875 C 1.640625 -1.039062 1.835938 -0.96875 2.109375 -0.96875 C 2.378906 -0.96875 2.570312 -1.039062 2.6875 -1.1875 C 2.8125 -1.332031 2.875 -1.59375 2.875 -1.96875 L 2.875 -4.671875 Z M 3.9375 -4.671875 "/></g></g></g><g fill="#ffffff" fill-opacity="1"><g transform="translate(32.061078, 36.045418)"><g><path d="M 2.71875 -4.671875 L 4.609375 0 L 3.453125 0 L 3.109375 -0.9375 L 1.328125 -0.9375 L 0.984375 0 L -0.15625 0 L 1.734375 -4.671875 Z M 2.75 -1.875 L 2.234375 -3.234375 L 2.21875 -3.234375 L 1.703125 -1.875 Z M 2.75 -1.875 "/></g></g></g><g fill="#ffffff" fill-opacity="1"><g transform="translate(37.962615, 36.045418)"><g><path d="M 3.9375 -4.671875 L 3.9375 -1.65625 C 3.9375 -1.082031 3.78125 -0.648438 3.46875 -0.359375 C 3.15625 -0.0664062 2.703125 0.078125 2.109375 0.078125 C 1.515625 0.078125 1.0625 -0.0664062 0.75 -0.359375 C 0.4375 -0.648438 0.28125 -1.082031 0.28125 -1.65625 L 0.28125 -4.671875 L 1.34375 -4.671875 L 1.34375 -1.96875 C 1.34375 -1.59375 1.398438 -1.332031 1.515625 -1.1875 C 1.640625 -1.039062 1.835938 -0.96875 2.109375 -0.96875 C 2.378906 -0.96875 2.570312 -1.039062 2.6875 -1.1875 C 2.8125 -1.332031 2.875 -1.59375 2.875 -1.96875 L 2.875 -4.671875 Z M 3.9375 -4.671875 "/></g></g></g><g fill="#ffffff" fill-opacity="1"><g transform="translate(43.637172, 36.045418)"><g><path d="M 0.046875 -3.75 L 0.046875 -4.671875 L 3.328125 -4.671875 L 3.328125 -3.75 L 2.21875 -3.75 L 2.21875 0 L 1.15625 0 L 1.15625 -3.75 Z M 0.046875 -3.75 "/></g></g></g><g fill="#ffffff" fill-opacity="1"><g transform="translate(48.471892, 36.045418)"><g><path d="M 0.125 -2.34375 C 0.125 -3.019531 0.351562 -3.59375 0.8125 -4.0625 C 1.28125 -4.53125 1.835938 -4.765625 2.484375 -4.765625 C 3.140625 -4.765625 3.695312 -4.53125 4.15625 -4.0625 C 4.613281 -3.59375 4.84375 -3.019531 4.84375 -2.34375 C 4.84375 -1.65625 4.617188 -1.078125 4.171875 -0.609375 C 3.722656 -0.148438 3.160156 0.078125 2.484375 0.078125 C 1.804688 0.078125 1.242188 -0.148438 0.796875 -0.609375 C 0.347656 -1.066406 0.125 -1.644531 0.125 -2.34375 Z M 1.28125 -2.34375 C 1.28125 -2.09375 1.316406 -1.863281 1.390625 -1.65625 C 1.472656 -1.457031 1.609375 -1.289062 1.796875 -1.15625 C 1.984375 -1.019531 2.210938 -0.953125 2.484375 -0.953125 C 2.878906 -0.953125 3.175781 -1.085938 3.375 -1.359375 C 3.582031 -1.628906 3.6875 -1.957031 3.6875 -2.34375 C 3.6875 -2.726562 3.582031 -3.054688 3.375 -3.328125 C 3.175781 -3.597656 2.878906 -3.734375 2.484375 -3.734375 C 2.097656 -3.734375 1.800781 -3.597656 1.59375 -3.328125 C 1.382812 -3.054688 1.28125 -2.726562 1.28125 -2.34375 Z M 1.28125 -2.34375 "/></g></g></g></svg>